<svg width="24" height="24" viewBox="0 0 24 24" fill="none" xmlns="http://www.w3.org/2000/svg">
    <path d="M19.8564 14.2861L23 14.2861L23 17.4287L19.8564 17.4287L19.8564 14.2861ZM19.8574 11.1436L19.8574 14.2861L16.7139 14.2861L16.7139 11.1436L19.8574 11.1436ZM16.7148 8L16.7148 11.1436L13.5713 11.1436L13.5713 8L16.7148 8ZM13.5713 4.85742L13.5713 8L10.4287 8L10.4287 4.85742L13.5713 4.85742ZM10.4287 8L10.4287 11.1436L7.28613 11.1436L7.28613 8L10.4287 8ZM7.28516 11.1436L7.28516 14.2861L4.14258 14.2861L4.14258 11.1436L7.28516 11.1436ZM4.14258 14.2861L4.14258 17.4287L1 17.4287L1 14.2861L4.14258 14.2861Z" fill="#3F79C8"/>
</svg>
