<svg width="256" height="56" viewBox="0 0 256 56" fill="none" xmlns="http://www.w3.org/2000/svg">
    <rect y="19" width="3" height="9" fill="#3F79C8"/>
    <rect x="3" y="12" width="3" height="7" fill="#3F79C8"/>
    <rect x="6" y="9" width="3" height="3" fill="#3F79C8"/>
    <rect x="12" y="6" width="3" height="6" transform="rotate(-90 12 6)" fill="#3F79C8"/>
    <rect x="9" y="9" width="3" height="3" transform="rotate(-90 9 9)" fill="#3F79C8"/>
    <rect x="20" width="3" height="2" transform="rotate(90 20 0)" fill="#3F79C8"/>
    <rect width="3" height="9" transform="matrix(1 0 0 -1 0 37)" fill="#3F79C8"/>
    <rect width="3" height="7" transform="matrix(1 0 0 -1 3 44)" fill="#3F79C8"/>
    <rect width="3" height="3" transform="matrix(1 0 0 -1 6 47)" fill="#3F79C8"/>
    <rect width="3" height="6" transform="matrix(-4.37114e-08 1 1 4.37114e-08 12 50)" fill="#3F79C8"/>
    <rect width="3" height="3" transform="matrix(-4.37114e-08 1 1 4.37114e-08 9 47)" fill="#3F79C8"/>
    <rect width="3" height="2" transform="matrix(-4.37114e-08 -1 -1 4.37114e-08 20 56)" fill="#3F79C8"/>
    <mask id="path-13-inside-1_2346_569" fill="white">
        <path d="M20 0H236V56H20V0Z"/>
    </mask>
    <path d="M20 0V3H236V0V-3H20V0ZM236 56V53H20V56V59H236V56Z" fill="#3F79C8" mask="url(#path-13-inside-1_2346_569)"/>
    <rect x="256" y="37" width="3" height="9" transform="rotate(-180 256 37)" fill="#3F79C8"/>
    <rect x="253" y="44" width="3" height="7" transform="rotate(-180 253 44)" fill="#3F79C8"/>
    <rect x="250" y="47" width="3" height="3" transform="rotate(-180 250 47)" fill="#3F79C8"/>
    <rect x="244" y="50" width="3" height="6" transform="rotate(90 244 50)" fill="#3F79C8"/>
    <rect x="247" y="47" width="3" height="3" transform="rotate(90 247 47)" fill="#3F79C8"/>
    <rect x="236" y="56" width="3" height="2" transform="rotate(-90 236 56)" fill="#3F79C8"/>
    <rect width="3" height="9" transform="matrix(-1 -8.74228e-08 -8.74228e-08 1 256 19)" fill="#3F79C8"/>
    <rect width="3" height="7" transform="matrix(-1 -8.74228e-08 -8.74228e-08 1 253 12)" fill="#3F79C8"/>
    <rect width="3" height="3" transform="matrix(-1 -8.74228e-08 -8.74228e-08 1 250 9)" fill="#3F79C8"/>
    <rect width="3" height="6" transform="matrix(1.31134e-07 -1 -1 -1.31134e-07 244 6)" fill="#3F79C8"/>
    <rect width="3" height="3" transform="matrix(1.31134e-07 -1 -1 -1.31134e-07 247 9)" fill="#3F79C8"/>
    <rect width="3" height="2" transform="matrix(-4.37114e-08 1 1 4.37114e-08 236 0)" fill="#3F79C8"/>
</svg>
