<svg width="28" height="28" viewBox="0 0 28 28" fill="none" xmlns="http://www.w3.org/2000/svg">
    <path d="M7 2.5V4L13.9891 3.98824L20.9727 3.97059L20.9891 2.48235L21 1H14H7V2.5Z" fill="#3F79C8"/>
    <path d="M3.87636 5.35217V6.76521H2.43818H1V14V21.2348H2.43818H3.87636V22.6761V24.1174H5.34274H6.80911V25.5587V27H14.0282H21.2473L21.236 25.57L21.2191 24.1457L14.0169 24.1287L6.80911 24.1174L6.79783 22.6874L6.78091 21.263L5.33146 21.2461L3.87636 21.2348V14.0283V6.82174L5.33146 6.81043L6.78091 6.79348L6.79783 5.36348L6.80911 3.93913H5.34274H3.87636V5.35217Z" fill="#3F79C8"/>
    <path d="M21.2461 5.38047V6.82178H22.6843H24.1225V14.0283V21.2348H22.6843H21.2461V22.6761V24.1174H22.6843H24.1225V22.6761V21.2348H25.5606H26.9988V14V6.76526H25.5606H24.1225V5.35221V3.93917H22.6843H21.2461V5.38047Z" fill="#3F79C8"/>
    <path d="M19.7783 8.08442C19.7566 8.13501 19.7494 8.97329 19.7566 9.94165L19.7783 11.7122H21.6211H23.4638V9.86938V8.02661L21.6355 8.00493C20.2047 7.99048 19.8 8.00493 19.7783 8.08442Z" fill="#3F79C8"/>
    <path d="M16.0566 13.5911V15.4338H14.2139H12.3711V17.2766V19.1194H10.5283H8.68555V17.2766V15.4338H6.84277H5V17.2766V19.1194H6.84277H8.68555V20.9622V22.8049H10.5283H12.3711V20.9622V19.1194H14.2139H16.0566V17.2766V15.4338H17.8994H19.7422V13.5911V11.7483H17.8994H16.0566V13.5911Z" fill="#3F79C8"/>
</svg>
