<svg width="85" height="56" viewBox="0 0 85 56" fill="none" xmlns="http://www.w3.org/2000/svg">
    <rect y="19" width="3" height="9" fill="#3F79C8"/>
    <rect x="3" y="12" width="3" height="7" fill="#3F79C8"/>
    <rect x="6" y="9" width="3" height="3" fill="#3F79C8"/>
    <rect x="12" y="6" width="3" height="6" transform="rotate(-90 12 6)" fill="#3F79C8"/>
    <rect x="9" y="9" width="3" height="3" transform="rotate(-90 9 9)" fill="#3F79C8"/>
    <rect x="20" y="1.90735e-06" width="3" height="2" transform="rotate(90 20 1.90735e-06)" fill="#3F79C8"/>
    <rect width="3" height="9" transform="matrix(1 0 0 -1 0 37)" fill="#3F79C8"/>
    <rect width="3" height="7" transform="matrix(1 0 0 -1 3 44)" fill="#3F79C8"/>
    <rect width="3" height="3" transform="matrix(1 0 0 -1 6 47)" fill="#3F79C8"/>
    <rect width="3" height="6" transform="matrix(-4.37114e-08 1 1 4.37114e-08 12 50)" fill="#3F79C8"/>
    <rect width="3" height="3" transform="matrix(-4.37114e-08 1 1 4.37114e-08 9 47)" fill="#3F79C8"/>
    <rect width="3" height="2" transform="matrix(-4.37114e-08 -1 -1 4.37114e-08 20 56)" fill="#3F79C8"/>
    <mask id="path-13-inside-1_2336_16320" fill="white">
        <path d="M20 9.53674e-07H65V56H20V9.53674e-07Z"/>
    </mask>
    <path d="M20 9.53674e-07V3H65V9.53674e-07V-3H20V9.53674e-07ZM65 56V53H20V56V59H65V56Z" fill="#3F79C8" mask="url(#path-13-inside-1_2336_16320)"/>
    <rect x="85" y="37.0001" width="3" height="9" transform="rotate(-180 85 37.0001)" fill="#3F79C8"/>
    <rect x="82" y="44.0001" width="3" height="7" transform="rotate(-180 82 44.0001)" fill="#3F79C8"/>
    <rect x="79" y="47.0001" width="3" height="3" transform="rotate(-180 79 47.0001)" fill="#3F79C8"/>
    <rect x="73" y="50.0001" width="3" height="6" transform="rotate(90 73 50.0001)" fill="#3F79C8"/>
    <rect x="76" y="47.0001" width="3" height="3" transform="rotate(90 76 47.0001)" fill="#3F79C8"/>
    <rect x="65" y="56.0001" width="3" height="2" transform="rotate(-90 65 56.0001)" fill="#3F79C8"/>
    <rect width="3" height="9" transform="matrix(-1 -8.74228e-08 -8.74228e-08 1 85 19.0001)" fill="#3F79C8"/>
    <rect width="3" height="7" transform="matrix(-1 -8.74228e-08 -8.74228e-08 1 82 12.0001)" fill="#3F79C8"/>
    <rect width="3" height="3" transform="matrix(-1 -8.74228e-08 -8.74228e-08 1 79 9.00005)" fill="#3F79C8"/>
    <rect width="3" height="6" transform="matrix(1.31134e-07 -1 -1 -1.31134e-07 73 6.00005)" fill="#3F79C8"/>
    <rect width="3" height="3" transform="matrix(1.31134e-07 -1 -1 -1.31134e-07 76 9.00005)" fill="#3F79C8"/>
    <rect width="3" height="2" transform="matrix(-4.37114e-08 1 1 4.37114e-08 65 5.14984e-05)" fill="#3F79C8"/>
</svg>
