<svg width="200" height="60" xmlns="http://www.w3.org/2000/svg">
    <style>
        .fill {
        fill: black;
        }
        .no-fill {
        fill: white;
        }
        .tl {
        transform: translate(0, 0) scale(1,1);
        }
        .tr {
        transform: translate(100%, 0) scale(-1,1);
        }
        .bl {
        transform: translate(0, 100%) scale(1,-1);
        }
        .br {
        transform: translate(100%, 100%) scale(-1,-1);
        }
    </style>
    <defs>
        <mask id="corns">
            <style>
                .fill {
                    fill: black;
                }
                .no-fill {
                    fill: white;
                }
                .tl {
                    transform: translate(0, 0) scale(1,1);
                }
                .tr {
                    transform: translate(100%, 0) scale(-1,1);
                }
                .bl {
                    transform: translate(0, 100%) scale(1,-1);
                }
                .br {
                    transform: translate(100%, 100%) scale(-1,-1);
                }
            </style>
            <rect x="0" y="0" width="100%" height="100%" class="no-fill"/>
            <g class="tl fill">
                <rect x="0" y="0" width="18" height="3" />
                <rect x="0" y="3" width="12" height="3" />
                <rect x="0" y="6" width="9" height="3" />
                <rect x="0" y="9" width="6" height="3" />
                <rect x="0" y="12" width="3" height="7" />
            </g>
            <g class="tr fill">
                <rect x="0" y="0" width="18" height="3" />
                <rect x="0" y="3" width="12" height="3" />
                <rect x="0" y="6" width="9" height="3" />
                <rect x="0" y="9" width="6" height="3" />
                <rect x="0" y="12" width="3" height="7" />
            </g>
            <g class="bl fill">
                <rect x="0" y="0" width="18" height="3" />
                <rect x="0" y="3" width="12" height="3" />
                <rect x="0" y="6" width="9" height="3" />
                <rect x="0" y="9" width="6" height="3" />
                <rect x="0" y="12" width="3" height="7" />
            </g>
            <g class="br fill">
                <rect x="0" y="0" width="18" height="3" />
                <rect x="0" y="3" width="12" height="3" />
                <rect x="0" y="6" width="9" height="3" />
                <rect x="0" y="9" width="6" height="3" />
                <rect x="0" y="12" width="3" height="7" />
            </g>
        </mask>
    </defs>
    <rect width="100%" height="100%" class="fill" mask="url(#corns)"/>
</svg>
