<svg xmlns="http://www.w3.org/2000/svg">
    <style>
        .fill {
            fill: black;
        }
        .no-fill {
            fill: white;
        }
        .tl {
            transform: translate(0, 0) scale(1,1);
        }
        .tr {
            transform: translate(100%, 0) scale(-1,1);
        }
        .bl {
            transform: translate(0, 100%) scale(1,-1);
        }
        .br {
            transform: translate(100%, 100%) scale(-1,-1);
        }
    </style>
    <defs>
        <mask id="corns">
            <rect x="0" y="0" width="100%" height="100%" class="no-fill"/>
            <g class="tl fill">
                <path d="M0,0h18v3h-18ZM0,3h12v3h-12ZM0,6h9v3h-9ZM0,9h6v3h-6ZM0,12h3v7h-3Z" />
            </g>
            <g class="tr fill">
                <path d="M0,0h18v3h-18ZM0,3h12v3h-12ZM0,6h9v3h-9ZM0,9h6v3h-6ZM0,12h3v7h-3Z" />
            </g>
            <g class="bl fill">
                <path d="M0,0h18v3h-18ZM0,3h12v3h-12ZM0,6h9v3h-9ZM0,9h6v3h-6ZM0,12h3v7h-3Z" />
            </g>
            <g class="br fill">
                <path d="M0,0h18v3h-18ZM0,3h12v3h-12ZM0,6h9v3h-9ZM0,9h6v3h-6ZM0,12h3v7h-3Z" />
            </g>
        </mask>
    </defs>
    <rect width="100%" height="100%" class="fill" mask="url(#corns)"/>
</svg>
